<svg version="1" xmlns="http://www.w3.org/2000/svg" width="933.333" height="933.333" viewBox="0 0 700.000000 700.000000"><path d="M91.5 1.5C69.9 4.8 48.9 13.6 35.3 25 17.2 40 7.3 57.2 1.4 84 .2 89.1-.2 699 .9 699c.5 0 1.1-.4 1.3-.9.2-.5 6.4-7.4 13.8-15.2 12.4-13.2 23.6-25 28.5-30.4 1.1-1.2 4.5-4.7 7.5-7.9l5.5-5.6.1-271.8c.1-149.4.4-272.6.7-273.7C63.5 73.8 77.9 60 98.7 54.6c5.5-1.5 30.2-1.6 252-1.6h245.8l7 2.1c20 6.1 35.1 21.8 38.1 40 1.2 7.7 1.1 441.3-.2 448.8-3.3 19.2-20.7 36.2-41.7 40.5-5.7 1.2-38 1.5-200.5 1.5-106.5 0-197.5.1-202.2.1h-8.5l-5 4.6c-2.7 2.5-9.5 8.7-15 13.8-5.5 5.1-11.2 10.4-12.6 11.7-1.5 1.3-7 6.4-12.4 11.4-5.4 4.9-10.1 9.2-10.6 9.3-.5.2-.9.7-.9 1 0 .4 106.3.7 236.3.6 257.4 0 240.5.3 259.8-5.4 27.9-8.3 51.2-27.9 62.2-52.1 2.7-6 7-19.2 8.3-25.4.4-2.2.9-107.5 1-234 .3-198 .1-231-1.2-237.5-4.4-22.7-12.4-38.2-27.3-53-14.6-14.4-30.6-22.7-54.6-28.3-9-2.1-9.2-2.1-263-2.3C153.7.2 97.8.5 91.5 1.5z"/><path d="M192.5 153.5V170h45v133h36.1V170.5l22.4-.5 22.5-.5.1-16.3V137H192.5v16.5zM341.3 221.2l.2 84.3h36l.5-45.9.5-45.9 18.5 21.9 18.4 22 3.1-3.6c1.6-1.9 3.5-4 4-4.6.6-.6 7.5-8.9 15.5-18.4l14.5-17.2.3 46 .2 46.1 18.3-.2 18.2-.2.1-83c0-45.7-.2-83.6-.4-84.3-.3-.7-2.4-1.2-5.7-1.2h-5.2l-11.4 13.2c-6.3 7.3-12.4 14.4-13.6 15.8-4.9 5.7-7.2 8.3-22.1 25.8l-15.6 18.3-2.6-2.9c-1.4-1.6-4.5-5.3-7-8.2-2.5-2.9-5-5.8-5.5-6.4-.6-.6-4.8-5.6-9.5-11.1-10.8-12.7-15.6-18.4-24.9-29-1.4-1.7-5-5.8-7.9-9.3l-5.4-6.2h-11.6l.1 84.2zM194.5 334.9c-.3.2-.5 37.7-.5 83.2v82.8l33.8-.3c18.5-.2 34.8-.6 36.2-.9 1.4-.4 3.9-.9 5.5-1.1 29.3-4.8 53.8-25.1 63.9-52.9 1.3-3.7 2.5-7.1 2.5-7.5.1-.8.8-5.2 1.6-9.7 1.6-9-.3-29.3-3.6-38-7.9-21.2-20.6-35.8-39.4-45.5-17.2-8.8-25.7-10.1-66.8-10.4-18-.1-33 0-33.2.3zm63.8 33.5c20.7 2.9 36.8 17.9 41 38.2 6 29.1-12.8 56.1-41.7 59.9-3.6.5-21.5.9-25.6.6-1.3-.1-1.5-6.3-1.5-49.9v-49.8l11.5.2c6.3 0 13.7.4 16.3.8zM370.4 417.4l.1 83.1 40-.1c38.2-.1 40.3-.2 46.9-2.2 22.8-7.3 37.5-25.7 37.6-47 0-11.4-6.1-24.4-14.7-30.9l-3.5-2.7 3.1-2.8c4.3-4 8.7-10.7 10.9-16.5 3.9-10.2 2.3-28.1-3.4-39.4-4.8-9.7-15.4-18.1-27.6-22.1-5.9-2-9-2.1-47.9-2.3l-41.7-.3.2 83.2zm73.6-49c6.5 2.2 10.9 7.7 11.7 14.7.7 6.2-4.2 13.8-10.6 16.5-4.5 1.9-38 2-38.2.1-.6-5.2-.4-30.4.2-31.2.9-1.2 33.2-1.3 36.9-.1zm2.7 67.8c5 2.3 7.9 5.6 9.3 10.7.9 3.4.8 3.8-2.8 7-2 1.9-6 5.7-8.9 8.4l-5.2 5.1H423c-8.8.1-16.1-.1-16.1-.4-.4-1.4-.5-31.6-.1-32.3.2-.4 8.3-.7 18-.6 15.4.1 18.3.4 21.9 2.1z"/></svg>